<?xml version="1.0" standalone="no"?>
<!DOCTYPE svg PUBLIC "-//W3C//DTD SVG 20010904//EN"
 "http://www.w3.org/TR/2001/REC-SVG-20010904/DTD/svg10.dtd">
<svg version="1.0" xmlns="http://www.w3.org/2000/svg"
 width="1000.000000pt" height="1000.000000pt" viewBox="0 0 1000.000000 1000.000000"
 preserveAspectRatio="xMidYMid meet">

<g transform="translate(0.000000,1000.000000) scale(0.100000,-0.100000)"
fill="#000000" stroke="none">
<path d="M0 5000 l0 -5000 5000 0 5000 0 0 5000 0 5000 -5000 0 -5000 0 0
-5000z m5231 1885 c311 -65 583 -247 755 -505 140 -211 198 -406 198 -665 -1
-169 -15 -250 -70 -404 -181 -508 -707 -834 -1243 -772 -521 61 -928 435
-1038 953 -21 100 -23 340 -4 438 7 36 26 106 42 155 140 436 526 756 984 815
92 12 284 4 376 -15z m-631 -2825 c157 -30 280 -142 333 -303 30 -92 29 -268
-2 -357 -55 -158 -157 -256 -308 -295 -194 -51 -395 37 -485 212 -47 90 -59
146 -59 267 0 124 23 207 82 295 96 144 265 214 439 181z m-2588 -31 c212 -45
338 -213 338 -452 0 -228 -129 -394 -350 -448 -73 -18 -491 -20 -497 -2 -2 6
10 19 27 28 17 9 35 27 40 41 13 34 13 735 0 769 -6 15 -23 32 -40 38 -17 6
-30 17 -30 24 0 17 434 18 512 2z m1072 -50 c3 -34 6 -84 6 -110 0 -43 -3 -49
-20 -49 -16 0 -29 18 -56 78 -19 42 -42 83 -51 90 -12 8 -58 12 -145 12 l-128
0 0 -190 0 -190 83 0 c91 0 99 4 131 68 9 17 23 32 31 32 12 0 15 -22 15 -130
0 -151 -10 -164 -57 -77 l-28 52 -87 3 -88 3 0 -206 0 -205 148 0 c173 0 165
-4 210 106 22 54 33 70 52 72 23 4 23 3 17 -74 -4 -42 -7 -94 -7 -116 l0 -38
-350 0 c-327 0 -350 1 -350 18 0 9 15 24 33 32 22 10 34 24 38 45 4 17 7 185
7 375 0 190 -3 359 -7 375 -4 21 -16 34 -38 44 -18 8 -33 21 -33 28 0 10 64
13 334 13 l333 0 7 -61z m466 46 c0 -8 -8 -15 -18 -15 -10 0 -28 -7 -41 -16
-29 -21 -33 -2 91 -368 l101 -298 103 300 c56 165 104 313 106 329 2 23 -2 30
-29 43 -62 29 -41 40 72 40 84 0 105 -3 105 -14 0 -8 -13 -17 -29 -21 -16 -3
-36 -13 -43 -22 -7 -8 -78 -207 -158 -442 l-145 -426 -51 -3 c-42 -2 -53 0
-59 15 -3 10 -72 198 -152 418 -80 220 -151 410 -159 422 -7 12 -29 27 -49 34
-19 7 -35 19 -35 26 0 10 42 13 195 13 167 0 195 -2 195 -15z m2280 -106 c0
-108 -2 -120 -17 -117 -10 2 -33 35 -54 79 -50 102 -73 119 -160 119 l-69 0 0
-404 c0 -452 -3 -430 71 -442 29 -5 39 -11 39 -25 0 -18 -12 -19 -215 -19
-203 0 -215 1 -215 19 0 13 10 20 36 24 20 3 45 14 55 23 18 16 19 39 19 421
l0 403 -65 0 c-94 0 -108 -10 -161 -112 -33 -65 -50 -88 -62 -86 -12 2 -17 13
-16 36 0 17 1 70 2 117 l2 85 405 0 405 0 0 -121z m734 105 c3 -9 6 -58 6
-110 0 -85 -2 -94 -19 -94 -13 0 -27 20 -51 73 -49 111 -42 107 -197 107
l-133 0 0 -190 0 -191 92 3 92 3 24 48 c16 31 31 47 44 47 17 0 18 -8 16 -127
-3 -108 -5 -128 -19 -131 -10 -2 -21 9 -29 28 -30 72 -43 80 -136 80 l-84 0 0
-205 0 -205 150 0 c174 0 167 -4 211 107 20 51 32 69 48 71 20 3 21 -1 21 -60
0 -35 -3 -87 -6 -115 l-7 -53 -343 0 c-254 0 -345 3 -350 12 -4 7 0 16 11 22
10 6 29 21 42 33 l23 22 0 381 0 381 -25 24 c-13 14 -31 25 -40 25 -8 0 -15 7
-15 15 0 13 44 15 334 15 295 0 335 -2 340 -16z m501 -309 c68 -176 127 -326
132 -334 6 -9 47 92 129 320 l121 334 141 3 c114 2 142 0 142 -11 0 -7 -15
-20 -32 -28 l-33 -14 -3 -403 -2 -403 35 -21 c63 -36 42 -43 -141 -43 -153 0
-169 2 -172 18 -2 10 3 17 11 17 8 0 24 8 36 18 20 17 20 26 23 369 2 193 0
346 -3 340 -4 -7 -60 -158 -124 -337 -65 -179 -126 -349 -137 -377 -19 -51
-21 -53 -58 -53 l-38 0 -39 103 c-22 56 -89 229 -149 385 -84 219 -110 275
-112 250 -1 -18 1 -177 5 -353 l8 -320 32 -15 c19 -9 32 -21 30 -30 -2 -12
-22 -16 -100 -18 -88 -2 -97 -1 -97 15 0 10 14 24 33 33 l32 15 3 385 c1 212
0 395 -3 407 -3 12 -18 25 -35 31 -16 6 -30 18 -30 27 0 14 18 15 136 13 l136
-3 123 -320z m1395 276 c0 -26 3 -76 6 -110 7 -60 6 -61 -18 -61 -21 0 -29 10
-53 70 -45 111 -43 110 -195 110 l-130 0 0 -190 0 -190 84 0 c81 0 85 1 104
28 11 15 23 37 26 50 4 13 15 22 27 22 18 0 19 -8 19 -130 0 -108 -2 -130 -15
-130 -8 0 -24 18 -34 39 -34 66 -44 71 -132 71 l-79 0 0 -205 0 -205 150 0
150 0 19 30 c10 17 29 58 42 90 18 47 28 60 45 60 20 0 21 -3 17 -102 -3 -57
-6 -109 -8 -115 -3 -10 -82 -13 -350 -13 -338 0 -345 0 -345 20 0 11 7 20 15
20 8 0 24 9 35 20 19 19 20 33 20 406 0 231 -4 393 -10 404 -5 10 -21 21 -35
24 -14 4 -25 13 -25 21 0 13 46 15 335 15 l335 0 0 -49z"/>
<path d="M4803 6805 c-210 -38 -402 -137 -561 -289 -228 -218 -342 -484 -342
-796 0 -613 487 -1100 1100 -1100 611 0 1101 488 1100 1095 -1 302 -99 549
-304 763 -221 230 -488 344 -805 341 -64 0 -148 -7 -188 -14z m20 -622 l137
-36 0 -384 0 -385 -30 7 c-16 4 -134 35 -262 69 l-233 63 -3 385 -2 386 127
-34 c71 -19 190 -51 266 -71z m745 -469 l-3 -198 -170 -45 -170 -46 -3 -138
-3 -138 -31 26 -31 26 -28 -27 -29 -28 0 123 0 122 -35 -7 -35 -6 2 383 3 384
265 71 265 71 3 -188 c1 -103 1 -277 0 -385z m-1220 480 l22 -6 0 -357 0 -356
313 -83 c171 -45 320 -82 330 -82 21 0 24 -48 3 -56 -8 -3 -170 36 -360 87
l-346 92 0 384 c0 210 3 383 8 383 4 0 17 -3 30 -6z m1342 -378 l0 -383 -172
-46 c-254 -67 -228 -64 -228 -30 l0 28 170 45 170 45 0 357 c0 384 -3 362 48
367 9 1 12 -82 12 -383z"/>
<path d="M4480 6177 c0 -9 67 -31 195 -65 107 -29 202 -55 210 -58 9 -4 15 0
15 9 0 9 -14 20 -32 26 -48 14 -373 101 -381 101 -4 0 -7 -6 -7 -13z"/>
<path d="M4480 6096 c0 -10 16 -19 43 -26 92 -25 343 -91 360 -96 11 -4 17 0
17 10 0 9 -2 16 -4 16 -4 0 -358 94 -398 106 -12 4 -18 0 -18 -10z"/>
<path d="M4482 6013 c2 -12 56 -31 203 -70 110 -29 203 -53 208 -53 4 0 7 6 7
14 0 9 -29 21 -82 35 -46 11 -141 36 -211 55 -107 29 -128 32 -125 19z"/>
<path d="M4480 5928 c0 -8 79 -34 210 -69 169 -44 210 -52 208 -40 -2 11 -58
30 -198 68 -214 58 -220 59 -220 41z"/>
<path d="M4480 5845 c0 -8 2 -15 5 -15 8 0 383 -100 400 -107 9 -3 15 1 15 11
0 10 -18 20 -52 30 -97 27 -356 96 -362 96 -3 0 -6 -7 -6 -15z"/>
<path d="M4480 5766 c0 -8 8 -17 18 -20 9 -3 96 -26 192 -51 96 -26 183 -49
193 -51 11 -4 17 0 17 10 0 9 -2 16 -5 16 -4 0 -355 94 -397 106 -12 3 -18 0
-18 -10z"/>
<path d="M4482 5683 c2 -12 52 -29 183 -64 238 -64 235 -63 235 -47 0 9 -35
23 -102 41 -57 15 -152 40 -211 56 -92 25 -108 27 -105 14z"/>
<path d="M4480 5598 c0 -8 79 -34 210 -69 167 -44 210 -53 208 -41 -2 11 -60
31 -198 69 -213 58 -220 59 -220 41z"/>
<path d="M4417 3999 c-71 -38 -105 -127 -117 -308 -9 -154 4 -340 30 -416 34
-99 85 -137 185 -138 153 -2 208 91 221 368 14 291 -34 465 -139 504 -46 18
-137 13 -180 -10z"/>
<path d="M1780 3581 l0 -421 74 0 c208 0 278 108 277 425 -1 305 -62 401 -263
413 l-88 5 0 -422z"/>
</g>
</svg>
