<?xml version="1.0" standalone="no"?>
<!DOCTYPE svg PUBLIC "-//W3C//DTD SVG 20010904//EN"
 "http://www.w3.org/TR/2001/REC-SVG-20010904/DTD/svg10.dtd">
<svg version="1.0" xmlns="http://www.w3.org/2000/svg"
 width="1000.000000pt" height="1000.000000pt" viewBox="0 0 1000.000000 1000.000000"
 preserveAspectRatio="xMidYMid meet">

<g transform="translate(0.000000,1000.000000) scale(0.100000,-0.100000)"
fill="#000000" stroke="none">
<path d="M1535 6047 c12 -118 12 -117 88 -136 123 -31 142 -72 153 -329 l7
-169 91 -5 c93 -5 139 -20 183 -60 l21 -20 7 30 c8 40 20 48 80 56 28 4 60 10
73 13 l22 5 0 233 0 233 63 11 c215 37 392 -41 475 -212 51 -104 66 -176 66
-329 l1 -138 216 0 c231 0 234 -1 241 -50 7 -51 40 116 45 231 16 360 -144
584 -480 671 -89 22 -159 25 -1000 30 l-359 3 7 -68z"/>
<path d="M3636 6055 c10 -103 22 -135 48 -135 43 0 116 -32 140 -61 41 -49 47
-91 53 -362 l6 -257 33 -16 c26 -12 37 -13 55 -4 27 15 91 7 124 -14 23 -15
25 -23 25 -89 0 -49 -5 -80 -15 -94 -19 -27 -92 -40 -124 -24 -28 15 -38 -7
-25 -58 7 -26 15 -37 31 -39 31 -5 53 -39 53 -84 0 -47 -19 -58 -99 -58 l-61
0 0 -192 c0 -225 -13 -355 -40 -407 -22 -43 -65 -68 -134 -77 -29 -4 -47 -12
-51 -23 -5 -16 -24 -147 -25 -166 0 -7 168 -10 485 -10 l485 0 -1 65 c-2 116
-6 122 -72 135 -144 29 -166 91 -167 463 l0 212 -43 0 c-53 0 -67 13 -67 63 0
44 15 77 34 77 23 0 26 24 26 185 0 161 -3 185 -26 185 -19 0 -34 33 -34 77 0
50 14 63 67 63 l43 0 0 133 c0 273 33 345 167 372 67 13 70 20 72 130 l1 70
-485 0 -485 0 6 -60z"/>
<path d="M4943 6035 c7 -99 13 -115 43 -115 13 0 47 -9 76 -20 104 -39 118
-91 118 -431 l0 -238 42 -23 c53 -29 84 -74 98 -143 9 -41 8 -59 -1 -77 -12
-22 -12 -22 14 2 22 21 24 27 12 40 -11 13 -19 80 -16 142 3 51 221 82 312 44
15 -7 17 18 22 261 5 289 14 348 60 391 25 24 97 52 134 52 30 0 38 22 47 120
l7 75 -487 0 -487 0 6 -80z"/>
<path d="M6201 6039 c9 -101 15 -119 43 -119 43 0 116 -32 140 -61 39 -46 47
-90 53 -276 l6 -173 129 0 c74 0 138 -5 150 -11 14 -8 23 -8 31 0 6 6 46 11
89 11 l78 0 0 123 c0 143 14 248 38 297 22 46 73 78 134 86 58 8 62 15 71 124
l6 75 -487 0 -487 0 6 -76z"/>
<path d="M7504 6040 c9 -113 11 -117 62 -124 74 -10 123 -41 147 -94 21 -44
22 -65 25 -317 l3 -271 28 -12 c21 -9 35 -9 60 -1 44 16 127 6 159 -18 15 -11
36 -34 48 -50 l21 -31 9 42 c6 27 16 44 31 51 16 7 23 19 25 49 3 40 8 45 64
66 l31 11 6 197 c8 218 16 271 52 318 25 33 96 64 146 64 25 0 28 4 38 63 6
35 11 79 11 98 l0 34 -486 0 -487 0 7 -75z"/>
<path d="M2240 5380 c-19 -5 -52 -12 -72 -15 -29 -4 -38 -11 -38 -25 0 -13 7
-20 18 -20 39 0 42 -17 42 -232 l0 -209 -30 -17 c-16 -9 -30 -25 -30 -34 0
-16 12 -18 110 -18 103 0 110 1 110 20 0 11 -4 20 -9 20 -5 0 -17 7 -25 16
-14 13 -16 50 -16 254 0 225 -3 271 -19 269 -3 -1 -22 -5 -41 -9z"/>
<path d="M6098 5375 c-31 -7 -64 -15 -73 -18 -21 -9 -19 -37 3 -37 31 0 42
-22 42 -80 l0 -56 -62 0 c-133 -1 -218 -86 -218 -218 0 -52 32 -117 69 -139
39 -23 127 -23 162 1 15 9 36 28 48 42 l21 25 -5 -30 c-9 -52 3 -59 76 -43 50
11 65 19 67 34 2 12 -6 23 -20 29 -23 10 -23 12 -28 254 -3 151 -9 245 -15
246 -5 1 -36 -3 -67 -10z m-41 -247 c19 -16 17 -171 -3 -213 -21 -46 -65 -63
-100 -40 -78 51 -67 218 17 263 25 13 64 8 86 -10z"/>
<path d="M1620 5340 c0 -11 5 -20 10 -20 6 0 19 -9 30 -20 19 -19 20 -33 20
-215 0 -182 -1 -196 -20 -215 -11 -11 -24 -20 -30 -20 -5 0 -10 -9 -10 -20 0
-19 7 -20 130 -20 122 0 130 1 130 19 0 13 -11 23 -35 31 -48 16 -55 48 -55
266 l0 182 24 6 c14 3 41 0 62 -7 54 -18 76 -64 72 -146 -4 -55 -8 -67 -32
-87 -15 -13 -40 -24 -55 -24 -24 0 -41 -15 -41 -35 0 -10 77 -14 110 -5 134
36 187 218 89 307 -38 33 -93 43 -251 43 -141 0 -148 -1 -148 -20z"/>
<path d="M4297 5339 c3 -11 16 -25 29 -30 l24 -9 0 -215 0 -215 -25 -12 c-14
-6 -25 -19 -25 -30 0 -16 10 -18 115 -18 103 0 115 2 115 18 0 9 -14 25 -30
34 l-30 17 0 96 0 95 105 0 105 0 0 -90 c0 -77 -3 -93 -20 -110 -11 -11 -24
-20 -30 -20 -5 0 -10 -9 -10 -20 0 -19 7 -20 115 -20 107 0 115 1 115 19 0 11
-9 23 -21 26 -33 11 -39 47 -39 230 0 183 6 219 39 230 12 3 21 15 21 26 0 18
-8 19 -115 19 -105 0 -115 -2 -115 -18 0 -11 11 -24 25 -30 30 -14 37 -38 33
-127 l-3 -70 -102 -3 -103 -3 0 91 c0 91 0 91 30 108 16 9 30 25 30 35 0 15
-12 17 -119 17 -116 0 -119 -1 -114 -21z"/>
<path d="M6460 5341 c0 -11 9 -23 21 -26 33 -11 39 -47 39 -230 0 -183 -6
-219 -39 -230 -12 -3 -21 -15 -21 -26 0 -18 8 -19 115 -19 105 0 115 2 115 18
0 11 -11 24 -24 30 -30 13 -38 50 -34 142 l3 65 103 3 102 3 0 -93 c0 -98 -3
-106 -35 -124 -11 -6 -21 -19 -23 -28 -3 -14 11 -16 117 -16 67 0 121 3 121 6
0 15 -22 44 -34 44 -8 0 -17 7 -20 16 -9 22 -7 407 2 419 4 6 16 15 27 21 11
6 21 19 23 28 3 14 -11 16 -117 16 -109 0 -121 -2 -121 -17 0 -10 14 -26 30
-35 30 -17 30 -17 30 -108 l0 -91 -102 3 -103 3 -3 60 c-5 87 5 124 34 137 13
6 24 19 24 30 0 16 -10 18 -115 18 -107 0 -115 -1 -115 -19z"/>
<path d="M8213 5289 c-42 -19 -43 -21 -43 -69 0 -49 -1 -50 -30 -50 -23 0 -30
-5 -30 -19 0 -13 9 -21 30 -26 l30 -7 0 -119 c0 -162 15 -188 107 -189 58 0
103 16 103 37 0 9 -14 13 -44 13 -31 0 -46 5 -50 16 -3 9 -6 67 -6 129 l0 113
44 6 c32 5 45 12 49 26 5 18 0 20 -44 20 l-49 0 0 48 c0 51 -9 92 -19 91 -3 0
-25 -9 -48 -20z"/>
<path d="M6730 5292 c0 -7 -11 -14 -25 -18 -23 -6 -25 -11 -25 -60 l0 -54 55
0 55 0 0 55 c0 35 -4 55 -12 55 -6 0 -20 7 -30 17 -10 9 -18 11 -18 5z"/>
<path d="M2115 5203 c0 -56 -5 -89 -19 -115 -39 -79 -112 -127 -201 -131 -42
-1 -55 -6 -55 -17 0 -21 20 -40 41 -40 42 0 66 -92 33 -124 -10 -11 -34 -16
-73 -16 l-58 0 -6 -247 c-7 -282 -17 -341 -66 -385 -31 -28 -86 -48 -132 -48
-31 0 -35 -10 -45 -120 l-6 -75 542 0 543 0 -7 75 c-9 110 -13 120 -50 120
-39 0 -121 22 -162 43 -47 24 -91 80 -110 139 -13 41 -18 103 -22 276 l-4 222
-73 0 c-81 0 -105 13 -105 55 0 38 19 77 40 82 20 5 20 12 18 191 -2 116 -7
187 -13 189 -7 2 -10 -26 -10 -74z"/>
<path d="M1840 5185 c0 -76 2 -85 19 -85 32 0 44 26 39 87 -5 52 -23 83 -50
83 -4 0 -8 -38 -8 -85z"/>
<path d="M6440 5085 c0 -158 2 -185 15 -185 13 0 15 27 15 185 0 158 -2 185
-15 185 -13 0 -15 -27 -15 -185z"/>
<path d="M2545 5184 c-11 -3 -37 -10 -57 -15 -38 -10 -38 -10 -38 -59 0 -49 1
-50 29 -50 25 0 31 5 36 30 9 39 44 63 79 54 32 -8 46 -31 46 -76 0 -34 -1
-34 -62 -47 -113 -23 -158 -59 -158 -127 0 -57 33 -84 102 -84 57 0 84 11 115
48 l23 27 0 -32 c0 -17 4 -34 8 -37 5 -3 36 0 70 7 54 10 62 14 62 34 0 14 -6
23 -15 23 -25 0 -35 36 -35 127 0 95 -10 125 -51 155 -25 19 -115 32 -154 22z
m77 -283 c-12 -16 -31 -27 -50 -29 -26 -3 -34 2 -44 23 -10 22 -8 30 9 53 11
15 37 32 59 38 l39 11 3 -35 c2 -23 -3 -44 -16 -61z"/>
<path d="M3450 5178 c-82 -23 -129 -91 -130 -183 0 -60 32 -129 73 -159 43
-32 169 -35 225 -7 46 24 54 32 43 49 -6 10 -16 9 -44 -3 -60 -25 -114 -20
-148 14 -16 16 -29 36 -29 44 0 9 -3 22 -6 31 -5 14 8 16 110 16 115 0 116 0
122 25 9 38 -14 109 -46 140 -25 24 -83 45 -120 44 -8 -1 -31 -5 -50 -11z m95
-62 c9 -13 19 -40 22 -60 l6 -36 -72 0 c-71 0 -71 0 -71 28 0 15 9 42 20 60
25 41 71 45 95 8z"/>
<path d="M3845 5174 c-22 -7 -55 -13 -72 -13 -25 -1 -33 -5 -33 -20 0 -10 9
-21 20 -24 27 -7 40 -46 40 -121 0 -92 -9 -126 -36 -138 -13 -6 -24 -19 -24
-30 0 -16 10 -18 125 -18 117 0 125 1 125 19 0 13 -11 23 -35 31 -41 13 -48
33 -48 118 1 71 23 114 62 120 16 3 24 -4 32 -27 11 -31 23 -37 53 -25 12 5
16 20 16 64 0 44 -4 59 -16 64 -48 19 -106 -9 -134 -64 -11 -22 -21 -40 -23
-40 -1 0 0 23 2 51 1 28 -1 54 -5 58 -5 4 -27 2 -49 -5z"/>
<path d="M5061 5180 c-40 -10 -77 -36 -105 -74 -17 -23 -21 -42 -21 -111 0
-90 11 -116 69 -159 42 -32 161 -35 221 -6 30 15 45 28 45 41 0 22 -16 24 -50
4 -34 -19 -100 -19 -129 1 -21 15 -51 70 -51 94 0 6 41 10 110 10 98 0 110 2
120 20 12 23 0 88 -24 125 -31 47 -116 73 -185 55z m93 -62 c9 -12 16 -39 16
-60 l0 -38 -65 0 -65 0 0 34 c0 72 78 116 114 64z"/>
<path d="M5095 5080 c-3 -5 1 -10 9 -10 9 0 16 5 16 10 0 6 -4 10 -9 10 -6 0
-13 -4 -16 -10z"/>
<path d="M5475 5184 c-11 -3 -37 -10 -57 -15 -38 -10 -38 -10 -38 -59 0 -49 1
-50 29 -50 25 0 31 5 36 30 9 39 44 63 79 54 32 -8 46 -31 46 -76 0 -34 -1
-34 -62 -47 -113 -23 -158 -59 -158 -127 0 -57 33 -84 102 -84 57 0 84 11 115
48 l23 27 0 -32 c0 -17 4 -34 8 -37 5 -3 36 0 70 7 54 10 62 14 62 34 0 14 -6
23 -15 23 -25 0 -35 36 -35 127 0 95 -10 125 -51 155 -25 19 -115 32 -154 22z
m77 -283 c-12 -16 -31 -27 -50 -29 -26 -3 -34 2 -44 23 -10 22 -8 30 9 53 11
15 37 32 59 38 l39 11 3 -35 c2 -23 -3 -44 -16 -61z"/>
<path d="M7695 5174 c-22 -7 -55 -13 -72 -13 -26 -1 -33 -5 -33 -21 0 -11 6
-20 14 -20 31 0 46 -42 46 -127 0 -93 -10 -128 -39 -138 -12 -3 -21 -15 -21
-26 0 -18 8 -19 110 -19 100 0 110 2 110 18 0 11 -11 24 -25 30 -24 11 -25 15
-25 99 0 100 19 146 65 157 64 16 94 -47 82 -177 -5 -51 -10 -64 -31 -80 -52
-37 -35 -47 79 -47 89 0 105 2 105 16 0 9 -10 24 -22 34 -20 16 -22 29 -27
140 l-6 122 -33 29 c-56 50 -153 36 -201 -28 l-20 -28 1 38 c2 49 -9 57 -57
41z"/>
<path d="M2840 5167 c0 -7 13 -26 29 -41 18 -17 59 -92 101 -184 65 -142 70
-157 59 -184 -18 -43 -46 -58 -111 -58 -58 0 -58 0 -58 -29 0 -57 81 -81 134
-40 33 26 64 86 155 304 43 104 81 179 96 192 46 40 34 53 -50 53 -67 0 -75
-2 -75 -19 0 -11 9 -23 20 -26 28 -9 26 -50 -6 -132 -15 -38 -30 -71 -33 -75
-8 -10 -81 154 -81 181 0 12 4 21 9 21 12 0 41 29 41 41 0 5 -51 9 -115 9 -88
0 -115 -3 -115 -13z"/>
<path d="M7135 5167 c-66 -14 -83 -34 -42 -52 20 -9 23 -19 28 -105 9 -136 16
-158 52 -181 59 -35 174 -14 193 36 9 23 22 18 17 -7 -7 -45 8 -51 78 -36 50
11 65 19 67 34 2 12 -6 23 -20 29 -22 10 -23 16 -28 150 -6 161 0 154 -105
132 -43 -9 -61 -17 -63 -29 -2 -12 3 -18 16 -18 36 0 44 -24 41 -114 -4 -73
-7 -88 -28 -110 -28 -30 -72 -34 -92 -10 -10 12 -15 58 -17 155 -5 158 3 147
-97 126z"/>
<path d="M4840 5030 c0 -93 1 -100 20 -100 18 0 20 7 20 63 1 34 7 79 14 100
l14 37 -34 0 -34 0 0 -100z"/>
<path d="M7011 5028 l-1 -108 35 0 35 0 0 65 c0 58 -3 68 -26 88 -14 12 -30
31 -34 42 -6 12 -9 -21 -9 -87z"/>
<path d="M7531 5033 l-1 -103 35 0 35 0 0 68 c0 66 -1 68 -29 79 -18 6 -31 20
-34 34 -2 13 -5 -22 -6 -78z"/>
<path d="M3085 5091 c-3 -6 -3 -21 1 -33 l7 -23 9 24 c9 26 -4 52 -17 32z"/>
<path d="M5497 5093 c-12 -11 -8 -23 8 -23 8 0 15 7 15 15 0 16 -12 20 -23 8z"/>
<path d="M8060 5007 c0 -89 2 -98 25 -121 32 -32 35 -100 6 -116 -11 -6 -90
-10 -185 -10 l-165 0 -3 -267 c-3 -263 -3 -269 -28 -318 -29 -58 -67 -83 -138
-92 -57 -6 -57 -6 -68 -132 l-6 -66 487 0 487 0 -7 75 c-10 117 -10 117 -60
122 -155 18 -184 99 -185 516 0 135 -3 172 -13 172 -18 0 -64 49 -76 83 -6 16
-11 73 -11 128 0 89 -2 99 -18 99 -10 0 -23 5 -30 12 -9 9 -12 -9 -12 -85z"/>
<path d="M2816 5059 c-9 -17 -16 -53 -16 -79 0 -40 4 -50 25 -64 41 -27 29
-121 -17 -130 -13 -2 -49 -10 -81 -17 -45 -10 -62 -10 -80 0 -17 9 -30 9 -51
2 -42 -16 -117 -13 -156 7 -34 17 -35 17 -57 -6 -13 -13 -23 -35 -23 -51 0
-27 5 -30 53 -43 58 -14 274 -18 349 -5 36 6 49 13 54 30 14 46 31 55 94 50
90 -9 91 3 14 171 -35 77 -70 146 -78 154 -12 12 -16 9 -30 -19z"/>
<path d="M3262 5074 c-25 -46 -53 -127 -39 -116 21 17 59 100 55 120 -3 15 -5
15 -16 -4z"/>
<path d="M7280 5004 c0 -66 2 -75 18 -72 14 3 18 16 20 76 3 67 1 72 -18 72
-18 0 -20 -6 -20 -76z"/>
<path d="M7820 5051 c-5 -11 -10 -50 -10 -86 0 -63 1 -66 23 -63 20 3 22 10
25 63 5 93 -12 133 -38 86z"/>
<path d="M4520 4969 l0 -52 38 7 c20 3 45 6 55 6 14 0 17 9 17 45 l0 45 -55 0
-55 0 0 -51z"/>
<path d="M6680 4960 c0 -45 3 -60 14 -60 8 0 21 -7 29 -15 13 -13 16 -13 27 0
7 8 19 15 26 15 10 0 14 16 14 60 l0 60 -55 0 -55 0 0 -60z"/>
<path d="M5295 4949 c-4 -6 -5 -12 -2 -15 2 -3 7 2 10 11 7 17 1 20 -8 4z"/>
<path d="M5180 4920 c0 -5 7 -7 15 -4 8 4 15 8 15 10 0 2 -7 4 -15 4 -8 0 -15
-4 -15 -10z"/>
<path d="M5244 4786 l-62 -31 -3 -265 c-4 -259 -5 -266 -29 -315 -28 -56 -72
-84 -145 -93 -50 -5 -52 -9 -61 -122 l-7 -75 487 0 487 0 -6 60 c-14 139 -10
132 -67 138 -147 18 -178 102 -178 489 l0 197 -35 -6 c-21 -3 -41 -1 -50 7
-11 9 -22 9 -46 1 -67 -23 -165 -7 -198 32 -17 21 -13 21 -87 -17z"/>
<path d="M6720 4770 c-8 -5 -75 -10 -147 -10 l-133 0 0 -207 c-1 -232 -11
-339 -38 -392 -21 -42 -73 -71 -137 -79 -50 -5 -52 -10 -64 -127 l-6 -70 487
0 487 0 -6 65 c-10 119 -11 122 -76 135 -142 28 -166 96 -167 473 l0 202 -79
0 c-44 0 -83 5 -86 10 -8 12 -16 12 -35 0z"/>
</g>
</svg>
